<svg xmlns="http://www.w3.org/2000/svg" xmlns:xlink="http://www.w3.org/1999/xlink" width="1673.381" height="752.54" viewBox="0 0 1673.381 752.54">
  <defs>
    <linearGradient id="linear-gradient" x1="0.5" x2="0.5" y2="1" gradientUnits="objectBoundingBox">
      <stop offset="0" stop-color="#0089ff"/>
      <stop offset="1" stop-color="#1894ff"/>
    </linearGradient>
  </defs>
  <g id="Group_5538" data-name="Group 5538" transform="translate(1826 -2670.46)">
    <rect id="Rectangle_1968" data-name="Rectangle 1968" width="1366" height="612" transform="translate(-1826 2811)" fill="url(#linear-gradient)"/>
    <path id="Path_15753" data-name="Path 15753" d="M-163.266,308.111c40.451-46.456,120.335,13.644,236.082-12.659,100.251-22.792,106.019-83.333,186.117-80.331,58.519,2.182,122.285,35.971,157.33,94.837,38.649,64.9,24.6,130.983,20.655,147.018-17.606,71.921-69.861,109.859-88.295,122.817-75.952,53.354-161.18,44-202.067,39.539C-7.031,602.512-171.46,492.859-178.782,373.644-179.755,358.038-181.526,329.089-163.266,308.111Z" transform="matrix(-0.966, 0.259, -0.259, -0.966, -270.195, 3318.575)" fill="#e6f3ff" opacity="0.05"/>
  </g>
</svg>
