<svg xmlns="http://www.w3.org/2000/svg" xmlns:xlink="http://www.w3.org/1999/xlink" width="170" height="170" viewBox="0 0 170 170"><defs><filter id="a" x="0" y="0" width="170" height="170" filterUnits="userSpaceOnUse"><feOffset input="SourceAlpha"/><feGaussianBlur stdDeviation="15" result="b"/><feFlood flood-color="#1894ff" flood-opacity="0.161"/><feComposite operator="in" in2="b"/><feComposite in="SourceGraphic"/></filter></defs><g transform="translate(-389 -1120)"><g transform="matrix(1, 0, 0, 1, 389, 1120)" filter="url(#a)"><rect width="80" height="80" rx="20" transform="translate(45 45)" fill="#fff"/></g><g transform="translate(-166 318)"><path d="M7.2,35.648V28.8H3.6A3.6,3.6,0,0,1,0,25.2V3.6A3.6,3.6,0,0,1,3.6,0H32.4A3.6,3.6,0,0,1,36,3.6V25.2a3.6,3.6,0,0,1-3.6,3.6H18.157L7.2,35.647ZM3.6,3.6V25.2h7.2v3.951L17.124,25.2H32.4V3.6Z" transform="translate(622 869)" fill="#1894ff"/><path d="M6.673,7.727,14.4,0l2.546,2.546L6.673,12.819,0,6.146,2.546,3.6Z" transform="translate(631.527 876.727)" fill="#00de9a"/></g></g></svg>