<svg xmlns="http://www.w3.org/2000/svg" xmlns:xlink="http://www.w3.org/1999/xlink" width="170" height="170" viewBox="0 0 170 170"><defs><filter id="a" x="0" y="0" width="170" height="170" filterUnits="userSpaceOnUse"><feOffset input="SourceAlpha"/><feGaussianBlur stdDeviation="15" result="b"/><feFlood flood-color="#1894ff" flood-opacity="0.161"/><feComposite operator="in" in2="b"/><feComposite in="SourceGraphic"/></filter></defs><g transform="translate(-505.5 -1038)"><g transform="translate(-35.5 -82)"><g transform="matrix(1, 0, 0, 1, 541, 1120)" filter="url(#a)"><rect width="80" height="80" rx="20" transform="translate(45 45)" fill="#fff"/></g><path d="M6.732,8.182h4.722v3.273H1.636V1.622H4.909V5.329C8.57,1.49,12.742,0,18,0A18,18,0,1,1,0,18H3.273A14.727,14.727,0,1,0,18,3.273c-4.649,0-8.109,1.295-11.268,4.909Z" transform="translate(608 1187)" fill="#1894ff"/><path d="M3,7.5H9v3H0V0H3Z" transform="translate(624.875 1194.5)" fill="#00de9a"/></g></g></svg>