<svg xmlns="http://www.w3.org/2000/svg" xmlns:xlink="http://www.w3.org/1999/xlink" width="170" height="170" viewBox="0 0 170 170"><defs><filter id="a" x="0" y="0" width="170" height="170" filterUnits="userSpaceOnUse"><feOffset input="SourceAlpha"/><feGaussianBlur stdDeviation="15" result="b"/><feFlood flood-color="#1894ff" flood-opacity="0.161"/><feComposite operator="in" in2="b"/><feComposite in="SourceGraphic"/></filter></defs><g transform="translate(-657.5 -1038)"><g transform="translate(-35.5 -82)"><g transform="matrix(1, 0, 0, 1, 693, 1120)" filter="url(#a)"><rect width="80" height="80" rx="20" transform="translate(45 45)" fill="#fff"/></g><g transform="translate(139.5 321)"><path d="M16.5,33c-1.919,0-3.682-1.14-5.391-3.484a12.99,12.99,0,0,1-1.993.168,5.742,5.742,0,0,1-4.283-1.517c-1.358-1.357-1.8-3.41-1.349-6.276C1.14,20.183,0,18.419,0,16.5s1.14-3.682,3.484-5.391c-.45-2.866-.008-4.919,1.349-6.276A5.812,5.812,0,0,1,9.114,3.316a12.97,12.97,0,0,1,1.995.168C12.817,1.14,14.581,0,16.5,0s3.683,1.14,5.392,3.484a12.975,12.975,0,0,1,1.995-.168,5.812,5.812,0,0,1,4.281,1.517c1.357,1.357,1.8,3.41,1.349,6.276C31.861,12.817,33,14.581,33,16.5s-1.14,3.683-3.484,5.392c.449,2.866.008,4.919-1.349,6.276a5.817,5.817,0,0,1-4.283,1.517,12.984,12.984,0,0,1-1.993-.168C20.183,31.861,18.419,33,16.5,33Zm-4.706-6.637a1.494,1.494,0,0,1,1.259.685C14.3,28.979,15.493,30,16.5,30s2.2-1.02,3.448-2.951a1.5,1.5,0,0,1,1.573-.652,11.544,11.544,0,0,0,2.365.29,3,3,0,0,0,2.16-.641c.711-.711.833-2.276.351-4.525a1.507,1.507,0,0,1,.652-1.573C28.979,18.7,30,17.506,30,16.5s-1.02-2.2-2.951-3.447a1.509,1.509,0,0,1-.652-1.574c.482-2.248.36-3.813-.351-4.524a3,3,0,0,0-2.159-.641,11.551,11.551,0,0,0-2.366.29,1.5,1.5,0,0,1-1.573-.652C18.7,4.02,17.505,3,16.5,3S14.3,4.02,13.053,5.952a1.5,1.5,0,0,1-1.574.652,11.544,11.544,0,0,0-2.366-.29,3,3,0,0,0-2.159.641c-.712.711-.833,2.275-.351,4.524a1.51,1.51,0,0,1-.652,1.574C4.02,14.3,3,15.494,3,16.5s1.021,2.2,2.952,3.448A1.508,1.508,0,0,1,6.6,21.521c-.482,2.25-.361,3.815.351,4.525a3,3,0,0,0,2.16.641,11.536,11.536,0,0,0,2.364-.29A1.506,1.506,0,0,1,11.793,26.364Z" transform="translate(622.5 868)" fill="#1894ff"/><path d="M5.561,6.439,12,0l2.121,2.121L5.561,10.682,0,5.121,2.121,3Z" transform="translate(631.939 878.939)" fill="#00de9a"/></g></g></g></svg>